# xmcd
#
# Track frame offsets:
#	150
#	13984
#	30100
#	40440
#	59030
#	75880
#	87635
#	101535
#	121037
#	136410
#	148177
#	162015
#	178127
#	188467
#	207057
#	223907
#	235662
#	249562
#	269062
#	284437
#
# Disc length: 3948 seconds
#
# Revision: 3
# Processed by: cddbd v1.5.2PL0 Copyright (c) Steve Scherf et al.
# Submitted via: audiograbber 1.83.01
#
DISCID=200f6a14
DTITLE=Various Artist - THC0201
DYEAR=2002
DGENRE=Karaoke
TTITLE0=Mark McGuinn - That's A Plan (vocals)
TTITLE1=Aaron Tippin - Where The Stars And Stripes And The Eagle Fly (vocals)
TTITLE2=Faith Hill - The Star Sangled Banner (vocals)
TTITLE3=Chris Cagle - I Breathe In, I Breathe Out (vocals)
TTITLE4=Clint Black and Lisa Hartman Black - Easy For Me To Say (vocals)
TTITLE5=Patty Loveless - The Boys Are Back In Town (vocals)
TTITLE6=Tracy Lawrence - Life Don't Have To Be So Hard (vocals)
TTITLE7=Pat Green - Carry On (vocals)
TTITLE8=Jeffrey Stelle - Somethin' In The Water (vocals)
TTITLE9=Dixie Chicks - Some Days You Gotta Dance (vocals)
TTITLE10=Mark McGuinn - That's A Plan
TTITLE11=Aron Tippin - Where The Stars And Stripes And The Eagle Fly
TTITLE12=Faith Hill - The Star Sangled Banner
TTITLE13=Chris Cagle - I Breathe In, I Breathe Out
TTITLE14=Clint Black and Lisa Hartman Black - Easy For Me To Say
TTITLE15=Patty Loveless - The Boys Are Back In Town
TTITLE16=Tracy Lawrence - Life Don't Have To Be So Hard
TTITLE17=Pat Green - Carry On
TTITLE18=Jeffery Stelle - Somethin' In The Water
TTITLE19=Dixie Chicks - Some Days You Gotta Dance
EXTD=
EXTT0=
EXTT1=
EXTT2=
EXTT3=
EXTT4=
EXTT5=
EXTT6=
EXTT7=
EXTT8=
EXTT9=
EXTT10=
EXTT11=
EXTT12=
EXTT13=
EXTT14=
EXTT15=
EXTT16=
EXTT17=
EXTT18=
EXTT19=
PLAYORDER=
